<svg width="112" height="84" viewBox="0 0 112 84" fill="none" xmlns="http://www.w3.org/2000/svg">
<g id="Group 17">
<rect id="Rectangle 38" x="1" y="7" width="110" height="76" rx="21" fill="black" stroke="black" stroke-width="2"/>
<rect id="Rectangle 39" x="1" y="1" width="110" height="76" rx="21" fill="#FFFB42" stroke="black" stroke-width="2"/>
<g id="Frame">
<path id="Vector" d="M71.6902 23.9531L38.7664 36.7852C37.7011 37.2 37.7644 38.7328 38.8613 39.0563L47.2285 41.5242L50.3504 51.4313C50.6773 52.4649 51.9886 52.7777 52.748 52.0043L57.0722 47.5852L65.5589 53.8184C66.5996 54.5777 68.0761 54.0117 68.3398 52.7496L73.9613 25.8762C74.239 24.5613 72.9418 23.4645 71.6902 23.9531ZM67.5629 29.9192L52.2699 43.4402C52.1187 43.5774 52.0203 43.7602 51.9957 43.9641L51.4086 49.1988C51.3875 49.3711 51.1484 49.3957 51.0992 49.227L48.6769 41.4223C48.5679 41.0672 48.7121 40.677 49.0285 40.4801L67.0882 29.2828C67.5031 29.0227 67.9285 29.5922 67.5629 29.9192Z" fill="black"/>
</g>
</g>
</svg>
